<?xml version="1.0" encoding="utf-8"?>
<!-- Generator: Adobe Illustrator 16.0.0, SVG Export Plug-In . SVG Version: 6.00 Build 0)  -->
<!DOCTYPE svg PUBLIC "-//W3C//DTD SVG 1.1//EN" "http://www.w3.org/Graphics/SVG/1.1/DTD/svg11.dtd">
<svg version="1.1" id="Layer_1" xmlns="http://www.w3.org/2000/svg" xmlns:xlink="http://www.w3.org/1999/xlink" x="0px" y="0px"
	 width="165.573px" height="292.609px" viewBox="0 0 165.573 292.609" enable-background="new 0 0 165.573 292.609"
	 xml:space="preserve">
<g>
	<defs>
		<rect id="SVGID_1_" width="165.573" height="292.609"/>
	</defs>
	<clipPath id="SVGID_2_">
		<use xlink:href="#SVGID_1_"  overflow="visible"/>
	</clipPath>
	<path clip-path="url(#SVGID_2_)" fill="#89CDD1" d="M144.849,114.511c0,31.445-25.49,56.937-56.936,56.937
		c-31.444,0-56.938-25.491-56.938-56.937c0-31.445,25.493-56.937,56.938-56.937C119.358,57.574,144.849,83.066,144.849,114.511"/>
	<g opacity="0.6" clip-path="url(#SVGID_2_)">
		<g>
			<defs>
				<rect id="SVGID_3_" x="38.203" y="131.484" width="101.416" height="36.53"/>
			</defs>
			<clipPath id="SVGID_4_">
				<use xlink:href="#SVGID_3_"  overflow="visible"/>
			</clipPath>
			<path clip-path="url(#SVGID_4_)" fill="#1292A3" d="M82.798,158.163c-27.432-0.735-41.148-13.104-44.595-16.04
				c9.984,14.016,25.949,25.026,44.472,25.837c25.328,1.108,49.475-14.729,56.944-36.476
				C137.157,135.264,122.523,159.227,82.798,158.163"/>
		</g>
	</g>
	<g opacity="0.5" clip-path="url(#SVGID_2_)">
		<g>
			<defs>
				<rect id="SVGID_5_" x="31.223" y="61.422" width="104.788" height="91.808"/>
			</defs>
			<clipPath id="SVGID_6_">
				<use xlink:href="#SVGID_5_"  overflow="visible"/>
			</clipPath>
			<path clip-path="url(#SVGID_6_)" fill="#8BC8A8" d="M70.425,151.79c16.156,5.333,43.902-5.599,49.498-9.132
				c11.288-7.129,14.637-14.163,16.088-15.787c-6.803-7.787-59.213,12.772-54.448-19.544c1.882-12.774-3.315-14.989-11.211-23.271
				c-14.36-15.062,9.874-16.917,3.188-22.634c-24.042,3.534-43.888,35.633-42.219,55.612C32.59,132.216,51.796,145.64,70.425,151.79
				"/>
		</g>
	</g>
	<path clip-path="url(#SVGID_2_)" fill="#008285" d="M146.993,106.342c-0.27-3.596-0.88-7.416-1.943-11.351
		c-1.078-3.926-2.547-8.003-4.676-11.979c-2.093-3.989-4.779-7.895-8.018-11.549c-0.811-0.912-1.668-1.8-2.539-2.682
		c-0.92-0.835-1.795-1.737-2.773-2.534c-0.48-0.407-0.965-0.817-1.449-1.227c-0.49-0.406-1.008-0.779-1.514-1.172
		c-1.006-0.8-2.078-1.515-3.15-2.25c-8.615-5.788-19.373-9.574-30.729-10.009c-11.331-0.473-23.156,2.312-33.381,8.309
		c-2.563,1.49-4.993,3.207-7.323,5.057c-2.32,1.864-4.461,3.95-6.49,6.131c-2.012,2.201-3.809,4.592-5.482,7.053
		c-0.805,1.252-1.614,2.5-2.334,3.829c-0.789,1.323-1.352,2.573-2.051,3.932c-1.246,2.697-2.346,5.454-3.217,8.281
		c-0.838,2.835-1.529,5.708-1.963,8.616c-0.92,5.805-0.996,11.698-0.301,17.447c1.401,11.504,5.957,22.385,12.748,31.207
		c0.415,0.562,0.85,1.102,1.305,1.626c0.449,0.527,0.885,1.066,1.346,1.583c0.947,1.006,1.857,2.045,2.859,2.982
		c1.942,1.945,4.039,3.695,6.199,5.314c1.102,0.78,2.176,1.576,3.342,2.285c0.571,0.357,1.151,0.748,1.711,1.069
		c0.561,0.319,1.121,0.635,1.68,0.951c2.362,1.321,4.776,2.341,7.21,3.231c2.433,0.881,4.898,1.538,7.342,2.077
		c2.445,0.537,4.884,0.929,7.297,1.146c2.412,0.227,4.792,0.321,7.128,0.303c2.336-0.031,4.623-0.222,6.85-0.494
		c4.459-0.539,8.646-1.631,12.482-2.996c3.832-1.396,7.301-3.129,10.372-5.024c3.062-1.919,5.737-3.981,8.041-6.058
		c2.298-2.087,4.241-4.166,5.888-6.127c3.275-3.946,5.375-7.386,6.752-9.745c0.678-1.187,1.184-2.111,1.5-2.738
		c0.324-0.624,0.492-0.948,0.492-0.948s0.161-0.33,0.469-0.966c0.295-0.642,0.799-1.566,1.305-2.837
		c1.092-2.507,2.521-6.282,3.646-11.285C146.714,119.807,147.544,113.55,146.993,106.342 M145.595,116.33
		c-0.082,3.029-0.336,5.822-0.824,8.302c-0.854,4.986-2.242,8.753-3.28,11.25c-0.483,1.269-0.968,2.192-1.25,2.833
		c-0.293,0.637-0.448,0.964-0.448,0.964s-0.166,0.32-0.494,0.944c-0.32,0.629-0.824,1.537-1.5,2.713
		c-1.379,2.331-3.539,5.714-6.947,9.455c-0.844,0.938-1.778,1.885-2.778,2.854c-1.032,0.938-2.116,1.912-3.313,2.842
		c-2.365,1.896-5.113,3.697-8.205,5.298c-6.182,3.202-13.801,5.451-22.25,6.099c-8.428,0.608-17.75-0.18-26.926-3.214
		c-2.279-0.756-4.576-1.65-6.724-2.771c-0.571-0.291-1.144-0.582-1.718-0.874c-0.574-0.292-1.08-0.605-1.627-0.91
		c-1.084-0.585-2.145-1.292-3.219-1.973c-2.107-1.43-4.209-2.938-6.16-4.676c-1.008-0.831-1.93-1.767-2.889-2.675
		c-0.468-0.467-0.912-0.956-1.371-1.436c-0.463-0.476-0.912-0.968-1.336-1.482c-3.508-4.021-6.541-8.622-8.804-13.672
		c-2.289-5.04-3.786-10.515-4.473-16.126c-0.332-2.809-0.432-5.651-0.361-8.495c0.099-2.844,0.457-5.681,0.959-8.487
		c0.543-2.804,1.347-5.551,2.281-8.244c0.965-2.686,2.148-5.286,3.459-7.813c5.392-10.055,13.769-18.26,23.441-23.591
		c9.675-5.367,20.695-7.738,31.13-7.081c0.654,0.025,1.305,0.071,1.951,0.151c0.646,0.067,1.291,0.135,1.936,0.202
		c1.279,0.213,2.561,0.355,3.816,0.626c2.528,0.449,4.975,1.15,7.365,1.918c1.182,0.429,2.373,0.815,3.512,1.319
		c0.57,0.244,1.153,0.465,1.715,0.722c0.559,0.264,1.115,0.527,1.672,0.788l0.781,0.364l0.848,0.444
		c0.563,0.297,1.123,0.593,1.684,0.887c1.038,0.621,2.049,1.175,3.051,1.838c4.028,2.601,7.623,5.624,10.737,8.9
		c3.11,3.282,5.745,6.807,7.955,10.402c4.386,7.219,6.899,14.771,7.952,21.651C145.481,110.018,145.687,113.3,145.595,116.33"/>
	<path clip-path="url(#SVGID_2_)" fill="#FBBE00" d="M145.319,10.996c0.514,0.358,1.01,0.741,1.486,1.149
		c0.48,0.402,0.936,0.832,1.377,1.28c0.143,0.145,0.279,0.295,0.418,0.443c0.06-0.131,0.123-0.259,0.176-0.393
		c0.211-0.5,0.408-1.006,0.582-1.529c0.354-1.041,0.598-2.126,0.863-3.219c0.258-1.096,0.486-2.218,0.539-3.354
		c0.023-0.527,0.014-1.055-0.02-1.581c-0.141,0.346-0.297,0.685-0.484,1.008c-0.477,0.851-1.109,1.595-1.783,2.276
		c-0.68,0.677-1.427,1.274-2.221,1.796c-0.76,0.483-1.557,0.909-2.406,1.207c0.23,0.13,0.459,0.264,0.686,0.404
		C144.799,10.649,145.073,10.807,145.319,10.996"/>
	<path clip-path="url(#SVGID_2_)" fill="#FBBE00" d="M153.409,38.532c-0.086-1.034-0.182-2.067-0.344-3.091
		c-0.119-1.029-0.346-2.042-0.529-3.059c-0.248-1.003-0.426-2.022-0.73-3.011c-0.262-0.999-0.585-1.979-0.9-2.959
		c-0.352-0.969-0.691-1.944-1.111-2.886c-0.381-0.958-0.832-1.887-1.279-2.814l-0.715-1.373l-0.762-1.349
		c-0.524-0.887-1.072-1.766-1.654-2.623c-0.281-0.434-0.58-0.856-0.889-1.273c-0.301-0.422-0.609-0.839-0.934-1.243
		c-0.635-0.821-1.305-1.616-2-2.388c-0.693-0.774-1.414-1.528-2.164-2.249c-0.742-0.732-1.521-1.428-2.313-2.11
		c-0.791-0.682-1.619-1.321-2.461-1.938c-1.38-1.03-2.839-1.942-4.324-2.813c0.263,0.247,0.501,0.516,0.723,0.795
		c0.461,0.57,0.867,1.179,1.25,1.797c0.762,1.245,1.439,2.535,2.068,3.848c1.27,2.623,2.391,5.309,3.396,8.053l0.051,0.14
		l-0.068,0.148c-0.641,1.421-1.572,2.608-2.52,3.758c-0.955,1.144-1.971,2.231-3.025,3.273c-1.051,1.047-2.129,2.061-3.236,3.041
		c-0.261,0.231-0.524,0.457-0.786,0.686c1.528-0.402,3.05-0.823,4.558-1.274c1.289-0.384,2.566-0.793,3.814-1.252
		c0.625-0.23,1.242-0.474,1.836-0.74c0.594-0.263,1.18-0.55,1.672-0.876l0.723-0.479l0.422,0.727
		c0.611,1.061,1.15,2.159,1.623,3.281c0.457,1.126,0.854,2.273,1.197,3.432c0.668,2.323,1.123,4.692,1.414,7.073
		c0.275,2.384,0.41,4.777,0.412,7.166c0.004,1.195-0.039,2.389-0.104,3.581c-0.016,0.252-0.036,0.504-0.054,0.757
		c0.234-0.595,0.475-1.19,0.688-1.793c0.26-0.746,0.539-1.486,0.768-2.243c0.252-0.75,0.461-1.514,0.66-2.277
		c0.109-0.381,0.191-0.767,0.283-1.151c0.092-0.386,0.184-0.77,0.258-1.158c0.164-0.774,0.299-1.551,0.42-2.332
		c0.109-0.782,0.215-1.565,0.266-2.351c0.051-0.784,0.078-1.583,0.029-2.346l-0.053-0.872l0.492,0.706l0.734,1.058
		c0.24,0.356,0.504,0.695,0.721,1.066l0.684,1.092c0.234,0.362,0.422,0.75,0.635,1.123c0.209,0.375,0.418,0.751,0.604,1.14
		c0.186,0.388,0.398,0.766,0.564,1.163c0.012,0.025,0.021,0.051,0.033,0.077C153.438,38.97,153.432,38.751,153.409,38.532"/>
	<g opacity="0.4" clip-path="url(#SVGID_2_)">
		<g>
			<defs>
				<rect id="SVGID_7_" x="137.315" y="6.314" width="16.137" height="41.974"/>
			</defs>
			<clipPath id="SVGID_8_">
				<use xlink:href="#SVGID_7_"  overflow="visible"/>
			</clipPath>
			<path clip-path="url(#SVGID_8_)" fill="#FFED00" d="M153.409,38.532c-0.086-1.034-0.182-2.067-0.344-3.091
				c-0.119-1.029-0.346-2.042-0.529-3.059c-0.248-1.003-0.426-2.022-0.73-3.011c-0.262-0.999-0.585-1.979-0.9-2.959
				c-0.352-0.969-0.691-1.944-1.111-2.886c-0.381-0.958-0.832-1.887-1.279-2.814l-0.715-1.373l-0.762-1.349
				c-0.524-0.887-1.072-1.766-1.654-2.623c-0.281-0.434-0.58-0.856-0.889-1.273c-0.301-0.422-0.609-0.839-0.934-1.243
				c-0.635-0.821-1.305-1.616-2-2.388c-0.693-0.774-1.414-1.528-2.164-2.249c-0.668-0.66-1.372-1.283-2.082-1.9
				c4.122,7.352,6.43,15.594,6.827,23.95c0.585,2.146,1.001,4.327,1.269,6.52c0.275,2.384,0.41,4.777,0.412,7.166
				c0.004,1.195-0.039,2.389-0.104,3.581c-0.016,0.252-0.036,0.504-0.054,0.757c0.234-0.595,0.475-1.19,0.688-1.793
				c0.26-0.746,0.539-1.486,0.768-2.243c0.252-0.75,0.461-1.514,0.66-2.277c0.109-0.381,0.191-0.767,0.283-1.151
				c0.092-0.386,0.184-0.77,0.258-1.158c0.164-0.774,0.299-1.551,0.42-2.332c0.109-0.782,0.215-1.565,0.266-2.351
				c0.051-0.784,0.078-1.583,0.029-2.346l-0.053-0.872l0.492,0.706l0.734,1.058c0.24,0.356,0.504,0.695,0.721,1.066l0.684,1.092
				c0.234,0.362,0.422,0.75,0.635,1.123c0.209,0.375,0.418,0.751,0.604,1.14c0.186,0.388,0.398,0.766,0.564,1.163
				c0.012,0.025,0.021,0.051,0.033,0.077C153.438,38.97,153.432,38.751,153.409,38.532"/>
		</g>
	</g>
	<path clip-path="url(#SVGID_2_)" fill="#EF8200" d="M154.37,38.478c-0.045-1.056-0.096-2.114-0.215-3.167
		c-0.078-1.059-0.262-2.105-0.404-3.157c-0.201-1.042-0.383-2.092-0.662-3.118c-0.137-0.514-0.25-1.034-0.406-1.542l-0.482-1.522
		c-0.357-1.002-0.699-2.012-1.135-2.984c-0.408-0.982-0.891-1.934-1.367-2.885l-0.77-1.398l-0.834-1.359
		c-0.576-0.892-1.166-1.777-1.82-2.615c-0.313-0.427-0.645-0.843-0.984-1.249c-0.331-0.413-0.672-0.82-1.027-1.212
		c-0.695-0.8-1.422-1.568-2.174-2.308c-0.748-0.748-1.52-1.469-2.318-2.155c-0.791-0.697-1.617-1.354-2.449-1.996
		c-0.842-0.632-1.68-1.263-2.551-1.852c-1.736-1.183-3.523-2.287-5.359-3.3l-0.076,0.133c0.299,0.191,0.584,0.407,0.834,0.664
		c0.26,0.247,0.494,0.521,0.715,0.805c0.445,0.566,0.842,1.172,1.213,1.792c0.73,1.248,1.352,2.557,1.939,3.88
		c0.576,1.328,1.09,2.683,1.584,4.044c0.469,1.306,0.911,2.625,1.313,3.947c-0.644,1.183-1.568,2.254-2.519,3.272
		c-0.992,1.056-2.057,2.052-3.129,3.037c-2.16,1.952-4.41,3.835-6.693,5.628l-2.713,2.127l3.361-0.757
		c2.672-0.602,5.313-1.257,7.939-2.035c1.313-0.394,2.617-0.814,3.914-1.293c1.042-0.395,2.074-0.803,3.095-1.379
		c0.428,0.766,0.83,1.549,1.187,2.358c0.451,1.061,0.848,2.149,1.193,3.257c0.336,1.109,0.629,2.236,0.873,3.375
		c0.242,1.142,0.439,2.293,0.611,3.449c0.332,2.317,0.531,4.658,0.598,7.006c0.074,2.344,0.066,4.712-0.117,7.038l-0.24,3.036
		l1.082-2.813l0.857-2.239c0.26-0.757,0.541-1.506,0.779-2.269c0.238-0.764,0.492-1.522,0.693-2.295
		c0.219-0.769,0.422-1.541,0.615-2.317c0.105-0.386,0.182-0.778,0.271-1.168c0.086-0.389,0.176-0.78,0.244-1.172
		c0.154-0.786,0.281-1.575,0.393-2.367c0.102-0.793,0.189-1.589,0.242-2.389c0.039-0.533,0.057-1.064,0.06-1.599l0.269,0.394
		c0.236,0.351,0.486,0.693,0.689,1.065l0.641,1.095c0.221,0.36,0.395,0.747,0.594,1.119c0.197,0.374,0.389,0.749,0.553,1.139
		c0.164,0.388,0.354,0.766,0.498,1.162c0.15,0.394,0.314,0.782,0.443,1.18c0.141,0.393,0.268,0.8,0.373,1.185l0.84,3.131
		l-0.037-3.238C154.384,40.591,154.429,39.533,154.37,38.478 M152.854,37.95c-0.186-0.389-0.395-0.765-0.604-1.14
		c-0.213-0.373-0.4-0.761-0.635-1.123l-0.684-1.092c-0.217-0.371-0.48-0.71-0.721-1.066l-0.734-1.058l-0.492-0.706l0.053,0.872
		c0.049,0.763,0.021,1.562-0.029,2.346c-0.05,0.786-0.156,1.569-0.266,2.351c-0.121,0.781-0.256,1.558-0.42,2.332
		c-0.074,0.388-0.166,0.772-0.258,1.158c-0.092,0.384-0.174,0.77-0.283,1.151c-0.198,0.763-0.408,1.527-0.66,2.277
		c-0.229,0.757-0.508,1.497-0.768,2.243c-0.214,0.603-0.454,1.198-0.688,1.793c0.018-0.253,0.038-0.505,0.054-0.757
		c0.064-1.192,0.107-2.386,0.104-3.581c-0.002-2.389-0.137-4.782-0.412-7.166c-0.291-2.381-0.746-4.75-1.414-7.073
		c-0.344-1.159-0.74-2.306-1.197-3.432c-0.473-1.122-1.012-2.22-1.623-3.281l-0.422-0.727l-0.723,0.479
		c-0.492,0.326-1.078,0.613-1.672,0.876c-0.594,0.266-1.211,0.511-1.836,0.74c-1.248,0.459-2.525,0.868-3.814,1.252
		c-1.508,0.451-3.03,0.872-4.558,1.274c0.262-0.229,0.525-0.455,0.786-0.686c1.107-0.98,2.186-1.994,3.236-3.041
		c1.055-1.042,2.07-2.129,3.025-3.273c0.947-1.15,1.879-2.337,2.52-3.758l0.068-0.148l-0.051-0.14
		c-1.006-2.744-2.127-5.43-3.396-8.053c-0.629-1.313-1.307-2.603-2.068-3.848c-0.383-0.618-0.789-1.227-1.25-1.797
		c-0.222-0.279-0.46-0.548-0.723-0.795c1.485,0.871,2.944,1.783,4.324,2.813c0.842,0.617,1.67,1.256,2.461,1.938
		c0.791,0.682,1.57,1.378,2.313,2.11c0.75,0.721,1.471,1.475,2.164,2.249c0.695,0.772,1.365,1.567,2,2.388
		c0.324,0.404,0.633,0.821,0.934,1.244c0.309,0.416,0.607,0.838,0.889,1.272c0.582,0.857,1.129,1.736,1.654,2.624l0.762,1.348
		l0.715,1.373c0.447,0.927,0.898,1.856,1.279,2.814c0.42,0.942,0.76,1.917,1.111,2.886c0.316,0.98,0.639,1.96,0.9,2.959
		c0.305,0.989,0.482,2.008,0.73,3.011c0.184,1.017,0.41,2.03,0.529,3.059c0.162,1.024,0.258,2.057,0.344,3.091
		c0.022,0.219,0.028,0.439,0.043,0.658c-0.012-0.026-0.022-0.052-0.033-0.077C153.253,38.716,153.04,38.338,152.854,37.95"/>
	<path clip-path="url(#SVGID_2_)" fill="#EF8200" d="M144.8,11.561c0.387,0.475,0.781,0.937,1.156,1.414
		c0.195,0.231,0.383,0.468,0.565,0.708c0.187,0.238,0.382,0.466,0.56,0.708l0.545,0.713c0.184,0.233,0.365,0.48,0.522,0.704
		l0.71,1.016l0.65-1.1c0.623-1.054,1.029-2.202,1.313-3.358c0.271-1.159,0.463-2.325,0.488-3.499
		c0.029-1.174-0.038-2.335-0.059-3.486c-0.008-0.577-0.012-1.151-0.008-1.728l0.043-1.748L151.333,0l-0.84,1.825
		c-0.373,0.812-0.859,1.549-1.359,2.268c-0.508,0.713-1.026,1.422-1.617,2.089c-1.164,1.344-2.484,2.583-3.879,3.817l-0.063,0.059
		l0.053,0.069C144.005,10.629,144.421,11.078,144.8,11.561 M146.253,8.873c0.793-0.522,1.541-1.12,2.221-1.797
		c0.675-0.681,1.307-1.425,1.783-2.276c0.188-0.322,0.344-0.662,0.484-1.008c0.033,0.527,0.043,1.055,0.02,1.581
		c-0.053,1.136-0.28,2.259-0.539,3.354c-0.266,1.094-0.51,2.178-0.863,3.22c-0.174,0.523-0.371,1.029-0.582,1.529
		c-0.053,0.134-0.116,0.262-0.176,0.393c-0.139-0.149-0.275-0.298-0.418-0.443c-0.441-0.449-0.896-0.879-1.377-1.28
		c-0.477-0.408-0.973-0.791-1.486-1.149c-0.246-0.189-0.521-0.347-0.787-0.513c-0.227-0.14-0.455-0.274-0.686-0.405
		C144.696,9.781,145.493,9.354,146.253,8.873"/>
	<path clip-path="url(#SVGID_2_)" fill="#03AEA3" d="M3.745,273.832c-1.172,0-2.213-0.848-2.213-2.084
		c0-0.781,0.455-1.564,1.236-1.891c0,0,0.455-0.193,0.455-0.846v-35.95c0-0.649-0.455-0.845-0.455-0.845
		c-0.781-0.326-1.236-1.109-1.236-1.889c0-1.236,1.041-2.084,2.213-2.084h15.631c12.308,0,19.994,10.94,19.994,22.794
		c0,11.853-7.686,22.664-19.994,22.794H3.745z M7.066,232.412c0.326,0.324,0.326,0.847,0.326,1.237v34.776
		c0,0.391,0,0.912-0.326,1.238h12.309c9.898,0,15.826-8.857,15.826-18.626c0-9.704-5.862-18.365-15.826-18.626H7.066z"/>
	<path clip-path="url(#SVGID_2_)" fill="#03AEA3" d="M42.458,256.833c0-9.442,7.748-17.193,17.257-17.193
		c9.573,0,17.323,7.751,17.323,17.193c0,9.572-7.75,17.322-17.323,17.322C50.207,274.156,42.458,266.406,42.458,256.833
		 M46.561,256.833c0,7.295,5.992,13.155,13.155,13.155c7.293,0,13.221-5.86,13.221-13.155c0-7.164-5.928-13.025-13.221-13.025
		C52.553,243.808,46.561,249.669,46.561,256.833"/>
	<path clip-path="url(#SVGID_2_)" fill="#03AEA3" d="M106.862,241.333l6.773,20.711l1.434,5.403h0.063l1.63-5.403l6.707-19.212
		c0.457-1.563,1.889-2.866,3.648-2.866c1.303,0,2.474,0.781,2.474,2.084c0,1.042-0.649,1.888-1.626,2.084
		c-0.391,0.064-0.783,0.326-0.914,0.716l-10.029,27.548c-0.457,0.912-1.041,1.434-1.953,1.434s-1.693-0.587-1.955-1.434
		l-7.164-21.752l-1.041-3.582l-0.977,3.582l-7.229,21.752c-0.262,0.847-1.043,1.434-1.955,1.434c-0.91,0-1.498-0.521-1.953-1.434
		L82.767,244.85c-0.131-0.39-0.521-0.651-0.912-0.716c-0.976-0.196-1.629-1.042-1.629-2.084c0-1.303,1.174-2.084,2.477-2.084
		c1.758,0,3.191,1.303,3.646,2.866l6.707,19.212l1.564,5.403h0.064l1.496-5.403l6.775-20.711c0.26-0.848,1.041-1.367,2.084-1.367
		C105.819,239.966,106.603,240.486,106.862,241.333"/>
	<path clip-path="url(#SVGID_2_)" fill="#03AEA3" d="M158.786,269.272v-14.457c0-6.188-2.736-10.682-10.289-10.682
		c-5.602,0-9.899,3.974-9.899,9.704v15.435c0,2.476-1.237,4.56-3.647,4.56c-1.172,0-2.215-0.847-2.215-2.084
		c0-0.782,0.457-1.564,1.239-1.89c0,0,0.454-0.194,0.454-0.848v-24.094c0-0.653-0.454-0.783-0.454-0.783
		c-0.782-0.326-1.239-1.172-1.239-1.954c0-1.236,0.977-2.214,2.148-2.214c2.281,0,3.714,1.564,3.714,4.234v1.172
		c0.325-0.587,3.584-5.406,9.899-5.406c9.572,0,14.457,5.665,14.457,15.37v13.675c0,0.653,0.457,0.848,0.457,0.848
		c0.781,0.325,1.236,1.107,1.236,1.89c0,1.237-1.043,2.084-2.215,2.084C160.024,273.832,158.786,271.748,158.786,269.272"/>
	<path clip-path="url(#SVGID_2_)" fill="#03AEA3" d="M83.772,240.106c-2.328-0.619-4.328,0.855-4.709,3.674l-0.148,0.781
		c0,0.004-0.004,0.004-0.004,0.008c-0.006,0.047-0.018,0.09-0.024,0.137l-0.285,1.503c-1.535,6.226-7.473,9.901-15.33,9.901
		c-6.651,0-12.427-3.188-14.524-7.643c-1.08,1.048-2.192,2.063-3.26,3.121c-0.033,0.031-0.069,0.051-0.1,0.081
		c3.371,4.767,10.121,8.564,17.884,8.564c9.203,0,16.936-5.645,18.92-12.201c0.006,0.005,0.01,0.007,0.014,0.01l0.033-0.15
		c0.152-0.523,0.275-1.052,0.352-1.586l0.307-1.4c0.166-0.629,0.801-0.71,0.801-0.71c0.84-0.114,1.479-0.753,1.68-1.509
		C85.694,241.492,84.903,240.404,83.772,240.106"/>
	<path clip-path="url(#SVGID_2_)" fill="#132355" d="M25.391,196.089v17.899c0,6.077-5.418,11.588-11.4,11.588h-1.414
		c-5.934,0-11.352-5.465-11.352-11.494v-17.993c0-0.472-0.332-0.613-0.332-0.613C0.33,195.24,0,194.676,0,194.11
		c0-0.894,0.754-1.507,1.602-1.507c1.742,0,2.637,1.507,2.637,3.299v18.087c0,4.476,4.004,8.574,8.338,8.574h1.414
		c4.38-0.048,8.384-4.24,8.384-8.574v-18.087c0-1.792,0.895-3.299,2.637-3.299c0.85,0,1.602,0.613,1.602,1.507
		c0,0.566-0.328,1.13-0.895,1.366C25.719,195.476,25.391,195.618,25.391,196.089"/>
	<path clip-path="url(#SVGID_2_)" fill="#132355" d="M48.045,222.28v-10.458c0-4.475-1.979-7.726-7.443-7.726
		c-4.051,0-7.161,2.873-7.161,7.02v11.164c0,1.79-0.896,3.298-2.638,3.298c-0.846,0-1.602-0.612-1.602-1.508
		c0-0.565,0.33-1.132,0.897-1.366c0,0,0.328-0.142,0.328-0.612v-17.429c0-0.473-0.328-0.566-0.328-0.566
		c-0.567-0.234-0.897-0.847-0.897-1.414c0-0.894,0.709-1.6,1.555-1.6c1.648,0,2.685,1.13,2.685,3.061v0.849
		c0.237-0.424,2.59-3.909,7.161-3.909c6.925,0,10.457,4.097,10.457,11.118v9.891c0,0.471,0.332,0.612,0.332,0.612
		c0.564,0.234,0.892,0.801,0.892,1.366c0,0.896-0.754,1.508-1.601,1.508C48.94,225.578,48.045,224.07,48.045,222.28"/>
	<path clip-path="url(#SVGID_2_)" fill="#132355" d="M51.998,225.578c-0.847,0-1.601-0.613-1.601-1.508
		c0-0.566,0.33-1.131,0.894-1.366c0,0,0.329-0.141,0.329-0.613v-17.712c0-1.79,0.896-3.297,2.638-3.297
		c0.85,0,1.602,0.613,1.602,1.507c0,0.567-0.328,1.131-0.895,1.366c0,0-0.328,0.142-0.328,0.613v17.712
		C54.637,224.07,53.741,225.578,51.998,225.578 M53.6,194.77c-1.225,0-2.213-0.989-2.213-2.215c0-1.178,1.035-2.118,2.213-2.118
		c1.176,0,2.166,0.94,2.166,2.166C55.766,193.781,54.775,194.77,53.6,194.77"/>
	<path clip-path="url(#SVGID_2_)" fill="#132355" d="M67.788,224.4l-7.584-19.69c-0.094-0.331-0.377-0.519-0.661-0.566
		c-0.752-0.141-1.178-0.801-1.178-1.508c0-1.084,0.897-1.553,1.839-1.553c1.225,0,2.166,0.847,2.592,1.977l5.273,13.992l1.18,3.863
		h0.047l1.222-3.863l5.278-13.992c0.424-1.13,1.367-1.977,2.59-1.977c0.943,0,1.838,0.469,1.838,1.553
		c0,0.707-0.424,1.367-1.178,1.508c-0.281,0.048-0.565,0.235-0.66,0.566l-7.584,19.69c-0.284,0.706-0.705,1.178-1.553,1.178
		C68.495,225.578,68.069,225.106,67.788,224.4"/>
	<path clip-path="url(#SVGID_2_)" fill="#132355" d="M83.237,214.837c0.613,4.144,4.004,7.961,8.435,7.961
		c3.294,0,5.651-0.989,7.204-2.543c0.33-0.332,0.755-0.471,1.18-0.471c0.752,0,1.506,0.61,1.506,1.41
		c0,0.426-0.143,0.803-0.424,1.084c-2.119,2.263-5.184,3.534-9.466,3.534c-6.786,0-11.498-5.842-11.498-12.53
		c0-6.406,4.711-12.437,11.498-12.437c6.827,0,11.586,5.983,11.586,12.437c0,0.894-0.802,1.555-1.603,1.555H83.237z
		 M100.194,211.822c-0.563-4.191-4.096-7.961-8.522-7.961c-4.337,0-7.962,3.77-8.435,7.961H100.194z"/>
	<path clip-path="url(#SVGID_2_)" fill="#132355" d="M109.661,202.778c0.047,0.142,0.141,0.564,0.141,0.989
		c1.178-1.838,3.393-2.921,5.701-2.921c1.412,0,2.873,0.236,4.287,0.753c0.611,0.236,1.035,0.707,1.035,1.507
		c0,1.132-1.082,1.743-2.072,1.414c-0.989-0.33-2.166-0.565-3.25-0.565c-2.686,0-5.512,1.414-5.512,4.383v13.942
		c0,1.79-0.894,3.298-2.639,3.298c-0.848,0-1.602-0.613-1.602-1.508c0-0.565,0.33-1.132,0.895-1.366c0,0,0.33-0.142,0.33-0.613
		v-17.522c0-0.472-0.33-0.613-0.33-0.613c-0.564-0.235-0.895-0.799-0.895-1.365c0-0.895,0.754-1.507,1.602-1.507
		C108.483,201.083,109.284,201.789,109.661,202.778"/>
	<path clip-path="url(#SVGID_2_)" fill="#132355" d="M129.728,225.814c-2.311,0-5.043-0.942-6.971-2.217
		c-0.473-0.329-0.662-0.8-0.662-1.27c0-1.084,1.273-1.933,2.59-1.036c1.367,0.988,3.252,1.506,5.23,1.506
		c2.92,0,5.605-1.414,5.605-3.343c0-2.403-2.967-3.44-5.652-4.523c-3.109-1.225-7.867-3.251-7.867-7.489
		c0-3.77,3.91-6.596,8.293-6.596c2.541,0,4.945,0.896,6.641,2.261c0.424,0.378,0.611,0.848,0.611,1.271
		c0,1.083-1.365,1.932-2.496,1.083c-1.318-1.035-3.061-1.6-4.756-1.6c-2.828,0-5.277,1.646-5.277,3.626
		c0,2.263,3.344,3.533,5.606,4.43c3.485,1.412,7.96,3.58,7.96,7.537C138.583,224.117,133.401,225.814,129.728,225.814"/>
	<path clip-path="url(#SVGID_2_)" fill="#132355" d="M140.56,213.283c0-6.83,5.605-12.437,12.482-12.437
		c6.924,0,12.531,5.606,12.531,12.437c0,6.924-5.607,12.53-12.531,12.53C146.165,225.813,140.56,220.207,140.56,213.283
		 M143.526,213.283c0,5.274,4.334,9.516,9.516,9.516c5.275,0,9.563-4.241,9.563-9.516c0-5.183-4.287-9.422-9.563-9.422
		C147.86,203.861,143.526,208.1,143.526,213.283"/>
	<path clip-path="url(#SVGID_2_)" fill="#132355" d="M54.609,222.792c0,0,0.119,2.917-3.273,2.917c-3.305,0-3.239-2.585-3.291-3.431
		l3.283,1.143L54.609,222.792z"/>
	<path clip-path="url(#SVGID_2_)" fill="#EF8200" d="M1.794,286.982c0-0.286,0.066-0.472,0.198-0.554
		c0.132-0.083,0.324-0.112,0.578-0.091c-0.033,0.308,0.019,0.674,0.157,1.098c0.137,0.424,0.324,0.842,0.561,1.255
		c0.236,0.412,0.512,0.786,0.825,1.121c0.314,0.337,0.63,0.572,0.95,0.711c0.318,0.138,0.627,0.147,0.923,0.032
		c0.297-0.114,0.55-0.427,0.759-0.933c0.056-0.55-0.011-1.094-0.197-1.634c-0.188-0.538-0.441-1.075-0.76-1.609
		c-0.319-0.533-0.674-1.067-1.064-1.601c-0.391-0.533-0.762-1.064-1.115-1.593c-0.351-0.527-0.663-1.057-0.931-1.584
		c-0.271-0.528-0.444-1.062-0.521-1.601c0.011-0.518,0.155-0.936,0.43-1.254c0.274-0.32,0.613-0.551,1.015-0.694
		c0.401-0.143,0.838-0.198,1.311-0.165c0.474,0.033,0.916,0.146,1.329,0.339c0.412,0.192,0.765,0.459,1.056,0.801
		c0.292,0.341,0.46,0.754,0.504,1.237c-0.023,0.418-0.118,0.698-0.289,0.843c-0.171,0.143-0.361,0.064-0.57-0.231
		c0.055-0.144,0.017-0.331-0.115-0.561c-0.132-0.232-0.319-0.457-0.561-0.678c-0.243-0.22-0.523-0.41-0.842-0.569
		c-0.319-0.159-0.63-0.247-0.932-0.265c-0.303-0.016-0.575,0.064-0.817,0.24c-0.242,0.176-0.418,0.495-0.528,0.957
		c0.033,0.33,0.178,0.726,0.437,1.188c0.259,0.462,0.566,0.965,0.924,1.51c0.357,0.545,0.74,1.113,1.147,1.708
		c0.408,0.595,0.779,1.193,1.115,1.799c0.335,0.604,0.607,1.202,0.816,1.791s0.303,1.141,0.281,1.658
		c0,0.561-0.152,1.035-0.454,1.42c-0.303,0.385-0.751,0.577-1.346,0.577c-0.527,0-1.047-0.146-1.559-0.438
		c-0.511-0.292-0.968-0.663-1.369-1.114c-0.403-0.45-0.727-0.951-0.974-1.502C1.918,288.048,1.794,287.509,1.794,286.982"/>
	<path clip-path="url(#SVGID_2_)" fill="#EF8200" d="M8.631,286.007c0-0.484,0.08-0.951,0.239-1.402
		c0.159-0.451,0.385-0.85,0.677-1.197c0.291-0.346,0.64-0.624,1.047-0.833c0.408-0.209,0.864-0.313,1.371-0.313
		c0.56,0.021,1.085,0.16,1.576,0.413c0.489,0.253,0.924,0.58,1.303,0.981c0.38,0.402,0.694,0.858,0.941,1.369
		c0.248,0.512,0.415,1.038,0.504,1.577c0.088,0.539,0.082,1.07-0.017,1.592c-0.099,0.523-0.306,0.996-0.619,1.42
		c-0.313,0.423-0.748,0.778-1.304,1.064c-0.555,0.286-1.246,0.456-2.071,0.511c-0.616,0-1.152-0.172-1.609-0.519
		c-0.456-0.348-0.836-0.778-1.139-1.297c-0.303-0.517-0.528-1.077-0.677-1.683C8.706,287.086,8.631,286.525,8.631,286.007
		 M9.736,286.189c0,0.396,0.036,0.82,0.107,1.271c0.072,0.45,0.202,0.868,0.388,1.254c0.188,0.385,0.448,0.704,0.784,0.957
		c0.336,0.253,0.768,0.38,1.296,0.38c0.836-0.088,1.49-0.312,1.964-0.669c0.473-0.357,0.789-0.78,0.949-1.271
		c0.159-0.49,0.187-1.012,0.082-1.567c-0.104-0.557-0.313-1.07-0.627-1.543c-0.313-0.474-0.71-0.875-1.188-1.205
		c-0.479-0.33-1.01-0.518-1.593-0.562c-0.363,0.011-0.671,0.088-0.924,0.231c-0.253,0.143-0.467,0.344-0.643,0.602
		c-0.177,0.259-0.312,0.567-0.405,0.925C9.833,285.35,9.77,285.749,9.736,286.189"/>
	<path clip-path="url(#SVGID_2_)" fill="#EF8200" d="M17.547,282.08c0.043-0.077,0.109-0.126,0.197-0.148
		c0.088-0.021,0.174-0.021,0.256,0c0.083,0.022,0.16,0.065,0.232,0.132c0.071,0.065,0.124,0.138,0.156,0.215l0.281,1.882
		c-0.022-0.408,0.055-0.751,0.231-1.032c0.175-0.28,0.407-0.498,0.693-0.651c0.286-0.154,0.602-0.239,0.949-0.257
		c0.347-0.016,0.677,0.036,0.99,0.157c0.314,0.121,0.591,0.314,0.833,0.578c0.243,0.264,0.397,0.605,0.463,1.023
		c0.11-0.342,0.285-0.663,0.528-0.966c0.242-0.303,0.517-0.554,0.825-0.751c0.308-0.198,0.633-0.33,0.973-0.396
		c0.341-0.067,0.664-0.036,0.966,0.09c0.303,0.127,0.57,0.361,0.801,0.702c0.23,0.341,0.39,0.819,0.479,1.436l0.098,5.528
		c0,0.22-0.044,0.424-0.132,0.611c-0.088,0.187-0.198,0.321-0.33,0.403c-0.132,0.083-0.272,0.083-0.421,0
		c-0.148-0.082-0.278-0.288-0.387-0.618c0.077-1.067,0.126-1.98,0.148-2.739c0.022-0.76,0.025-1.397,0.008-1.915
		c-0.016-0.518-0.055-0.931-0.115-1.238c-0.061-0.307-0.141-0.541-0.24-0.701c-0.098-0.159-0.211-0.266-0.337-0.321
		c-0.127-0.056-0.268-0.082-0.421-0.082c-0.364,0.044-0.675,0.187-0.933,0.429c-0.259,0.242-0.474,0.545-0.644,0.907
		c-0.17,0.363-0.299,0.768-0.387,1.214c-0.089,0.444-0.147,0.896-0.174,1.353s-0.023,0.899,0.017,1.328
		c0.038,0.43,0.101,0.804,0.189,1.122c-0.109,0.133-0.223,0.246-0.338,0.339c-0.115,0.094-0.231,0.154-0.347,0.182
		c-0.115,0.027-0.222,0.009-0.321-0.058c-0.099-0.065-0.187-0.192-0.265-0.38c0-0.121-0.007-0.313-0.024-0.578
		c-0.017-0.263-0.036-0.563-0.058-0.898s-0.046-0.69-0.074-1.065c-0.028-0.373-0.053-0.728-0.074-1.063
		c-0.022-0.336-0.045-0.636-0.066-0.899c-0.023-0.265-0.039-0.457-0.05-0.578c-0.264-0.484-0.512-0.797-0.742-0.94
		c-0.232-0.144-0.447-0.154-0.644-0.033c-0.198,0.121-0.375,0.345-0.528,0.669c-0.155,0.324-0.286,0.709-0.397,1.154
		c-0.109,0.445-0.198,0.925-0.263,1.437c-0.067,0.511-0.105,1.012-0.116,1.502c-0.011,0.489,0.002,0.94,0.041,1.353
		c0.038,0.413,0.108,0.746,0.206,0.999c0,0.153-0.041,0.3-0.124,0.438c-0.082,0.137-0.178,0.239-0.288,0.305
		c-0.11,0.066-0.228,0.088-0.355,0.066c-0.126-0.022-0.229-0.11-0.305-0.265L17.547,282.08z"/>
	<path clip-path="url(#SVGID_2_)" fill="#EF8200" d="M28.411,286.007c0-0.484,0.08-0.951,0.239-1.402
		c0.159-0.451,0.385-0.85,0.677-1.197c0.291-0.346,0.64-0.624,1.047-0.833c0.408-0.209,0.864-0.313,1.371-0.313
		c0.56,0.021,1.085,0.16,1.576,0.413c0.489,0.253,0.924,0.58,1.303,0.981c0.38,0.402,0.694,0.858,0.941,1.369
		c0.248,0.512,0.415,1.038,0.504,1.577c0.088,0.539,0.082,1.07-0.017,1.592c-0.099,0.523-0.306,0.996-0.619,1.42
		c-0.313,0.423-0.748,0.778-1.304,1.064c-0.555,0.286-1.246,0.456-2.071,0.511c-0.616,0-1.152-0.172-1.609-0.519
		c-0.456-0.348-0.836-0.778-1.139-1.297c-0.303-0.517-0.528-1.077-0.677-1.683C28.485,287.086,28.411,286.525,28.411,286.007
		 M29.516,286.189c0,0.396,0.036,0.82,0.107,1.271c0.072,0.45,0.202,0.868,0.388,1.254c0.188,0.385,0.448,0.704,0.784,0.957
		c0.336,0.253,0.768,0.38,1.296,0.38c0.836-0.088,1.49-0.312,1.964-0.669c0.473-0.357,0.789-0.78,0.949-1.271
		c0.159-0.49,0.187-1.012,0.082-1.567c-0.104-0.557-0.313-1.07-0.627-1.543c-0.313-0.474-0.71-0.875-1.188-1.205
		c-0.479-0.33-1.01-0.518-1.593-0.562c-0.363,0.011-0.671,0.088-0.924,0.231c-0.253,0.143-0.467,0.344-0.643,0.602
		c-0.177,0.259-0.312,0.567-0.405,0.925C29.613,285.35,29.549,285.749,29.516,286.189"/>
	<path clip-path="url(#SVGID_2_)" fill="#EF8200" d="M40.165,291.537c-0.914-0.044-1.628-0.212-2.146-0.504
		c-0.517-0.291-0.863-0.635-1.039-1.031c-0.177-0.396-0.198-0.814-0.066-1.254c0.131-0.44,0.381-0.836,0.751-1.188
		c0.368-0.352,0.841-0.625,1.419-0.817s1.224-0.239,1.939-0.141c-0.495-0.264-0.913-0.568-1.254-0.916
		c-0.342-0.347-0.598-0.7-0.768-1.063s-0.248-0.715-0.231-1.056c0.017-0.342,0.133-0.642,0.347-0.9
		c0.215-0.258,0.531-0.462,0.949-0.611c0.418-0.147,0.946-0.206,1.584-0.173c0.198,0,0.41,0.041,0.636,0.124
		c0.225,0.082,0.434,0.195,0.627,0.338c0.192,0.144,0.349,0.309,0.47,0.495c0.121,0.188,0.182,0.386,0.182,0.595
		c0.044,0.121,0.041,0.231-0.009,0.33c-0.049,0.099-0.115,0.177-0.198,0.231c-0.082,0.055-0.173,0.077-0.272,0.065
		c-0.099-0.011-0.176-0.065-0.231-0.165c-0.066-0.143-0.13-0.28-0.189-0.412c-0.061-0.133-0.138-0.248-0.232-0.348
		c-0.094-0.099-0.218-0.178-0.371-0.238c-0.154-0.061-0.363-0.092-0.627-0.092c-0.54,0.066-0.931,0.186-1.172,0.355
		c-0.242,0.171-0.377,0.369-0.404,0.594c-0.028,0.227,0.03,0.471,0.173,0.735c0.142,0.264,0.333,0.527,0.569,0.792
		c0.236,0.264,0.501,0.517,0.792,0.759c0.292,0.242,0.569,0.451,0.834,0.627l1.849-0.297c0.208,0.021,0.365,0.086,0.469,0.189
		c0.105,0.105,0.171,0.218,0.199,0.339c0.027,0.121,0.01,0.236-0.05,0.347c-0.061,0.11-0.152,0.171-0.273,0.181l-1.682,0.199
		c0.241,0.319,0.387,0.679,0.437,1.081c0.049,0.401-0.022,0.789-0.215,1.163c-0.192,0.374-0.514,0.713-0.965,1.015
		C41.544,291.187,40.935,291.405,40.165,291.537 M37.771,288.961c0.065,0.484,0.256,0.848,0.569,1.089
		c0.314,0.243,0.674,0.39,1.081,0.438c0.408,0.049,0.82,0.014,1.238-0.108c0.418-0.12,0.764-0.302,1.04-0.544
		c0.275-0.242,0.442-0.531,0.503-0.867c0.06-0.335-0.069-0.694-0.388-1.081c-0.132-0.176-0.321-0.302-0.569-0.379
		c-0.247-0.077-0.52-0.112-0.817-0.107c-0.297,0.006-0.599,0.05-0.908,0.133c-0.308,0.082-0.591,0.191-0.85,0.33
		c-0.258,0.138-0.47,0.3-0.635,0.486C37.871,288.539,37.783,288.742,37.771,288.961"/>
	<path clip-path="url(#SVGID_2_)" fill="#EF8200" d="M55.851,284.44c-0.187,0-0.369,0.017-0.545,0.05
		c-0.176,0.033-0.351,0.068-0.528,0.106c-0.176,0.039-0.349,0.074-0.52,0.107c-0.171,0.033-0.349,0.05-0.536,0.05
		c-0.022,0-0.063,0.002-0.124,0.008c-0.06,0.006-0.124,0.003-0.189-0.008c-0.067-0.011-0.127-0.03-0.182-0.058
		c-0.056-0.027-0.083-0.074-0.083-0.141c0-0.198,0.061-0.357,0.182-0.479s0.275-0.22,0.462-0.297s0.396-0.138,0.627-0.182
		s0.452-0.096,0.661-0.156c0.209-0.062,0.395-0.136,0.56-0.224s0.281-0.215,0.347-0.38c0.066-0.153,0.118-0.377,0.157-0.668
		c0.038-0.292,0.071-0.616,0.099-0.974c0.027-0.357,0.049-0.731,0.066-1.122s0.027-0.771,0.032-1.14
		c0.006-0.367,0.009-0.706,0.009-1.015c0-0.308,0.005-0.555,0.017-0.742c0.132-0.209,0.269-0.328,0.412-0.354
		c0.143-0.028,0.319,0.029,0.528,0.173c0,0.935-0.019,1.862-0.057,2.781c-0.04,0.919-0.02,1.879,0.057,2.88l3.763-1.14
		c0.154-0.044,0.272-0.055,0.355-0.032c0.082,0.021,0.14,0.063,0.173,0.124c0.033,0.06,0.052,0.129,0.058,0.206
		c0.006,0.076,0.009,0.153,0.009,0.23c0,0.165-0.086,0.31-0.256,0.429c-0.171,0.121-0.391,0.231-0.66,0.33
		c-0.27,0.1-0.573,0.19-0.909,0.273c-0.336,0.082-0.671,0.162-1.006,0.239c-0.335,0.076-0.655,0.153-0.958,0.23
		c-0.302,0.077-0.552,0.16-0.75,0.247c-0.099,0.54-0.163,1.159-0.19,1.857s-0.009,1.395,0.058,2.088
		c0.066,0.692,0.184,1.334,0.354,1.923c0.171,0.588,0.413,1.039,0.727,1.353c0.313,0.314,0.701,0.44,1.163,0.381
		c0.463-0.062,1.013-0.395,1.65-0.999c0.011,0.011,0.061,0.076,0.149,0.197c0.089,0.121,0.165,0.24,0.231,0.355
		s0.108,0.194,0.124,0.239c0.017,0.044-0.041,0-0.174-0.133c-0.671,0.771-1.284,1.235-1.84,1.396
		c-0.555,0.159-1.047,0.112-1.476-0.141c-0.43-0.254-0.796-0.677-1.098-1.271c-0.303-0.595-0.539-1.263-0.71-2.005
		c-0.171-0.743-0.278-1.52-0.322-2.327C55.724,285.901,55.751,285.144,55.851,284.44"/>
	<path clip-path="url(#SVGID_2_)" fill="#EF8200" d="M61.119,286.007c0-0.484,0.08-0.951,0.239-1.402
		c0.159-0.451,0.385-0.85,0.677-1.197c0.291-0.346,0.64-0.624,1.047-0.833c0.408-0.209,0.864-0.313,1.371-0.313
		c0.56,0.021,1.085,0.16,1.576,0.413c0.489,0.253,0.924,0.58,1.303,0.981c0.38,0.402,0.694,0.858,0.941,1.369
		c0.248,0.512,0.415,1.038,0.504,1.577c0.088,0.539,0.082,1.07-0.017,1.592c-0.099,0.523-0.306,0.996-0.619,1.42
		c-0.313,0.423-0.748,0.778-1.304,1.064c-0.555,0.286-1.246,0.456-2.071,0.511c-0.616,0-1.152-0.172-1.609-0.519
		c-0.456-0.348-0.836-0.778-1.139-1.297c-0.303-0.517-0.528-1.077-0.677-1.683C61.193,287.086,61.119,286.525,61.119,286.007
		 M62.224,286.189c0,0.396,0.036,0.82,0.107,1.271c0.072,0.45,0.202,0.868,0.388,1.254c0.188,0.385,0.448,0.704,0.784,0.957
		c0.336,0.253,0.768,0.38,1.296,0.38c0.836-0.088,1.49-0.312,1.964-0.669c0.473-0.357,0.789-0.78,0.949-1.271
		c0.159-0.49,0.187-1.012,0.082-1.567c-0.104-0.557-0.313-1.07-0.627-1.543c-0.313-0.474-0.71-0.875-1.188-1.205
		c-0.479-0.33-1.01-0.518-1.593-0.562c-0.363,0.011-0.671,0.088-0.924,0.231c-0.253,0.143-0.467,0.344-0.643,0.602
		c-0.177,0.259-0.312,0.567-0.405,0.925C62.321,285.35,62.257,285.749,62.224,286.189"/>
	<path clip-path="url(#SVGID_2_)" fill="#EF8200" d="M75.86,289.39c-0.913,0.815-1.731,1.337-2.45,1.568
		c-0.721,0.231-1.337,0.267-1.849,0.107c-0.512-0.159-0.913-0.471-1.205-0.933s-0.462-0.979-0.512-1.551
		c-0.049-0.572,0.027-1.153,0.232-1.742c0.203-0.588,0.536-1.094,0.998-1.518c0.461-0.423,1.061-0.71,1.798-0.858
		c0.738-0.148,1.623-0.074,2.658,0.223l-0.034-5.298c0.011-0.274,0.075-0.445,0.191-0.512c0.115-0.065,0.241-0.063,0.379,0.009
		c0.137,0.072,0.261,0.188,0.372,0.347c0.109,0.159,0.159,0.321,0.148,0.486c0.033,0.792,0.055,1.654,0.066,2.583
		c0.01,0.931,0.03,1.865,0.058,2.806c0.028,0.94,0.076,1.865,0.149,2.772c0.071,0.908,0.178,1.73,0.321,2.468
		c0,0.154-0.044,0.316-0.132,0.487c-0.088,0.17-0.236,0.255-0.445,0.255c-0.198,0-0.353-0.067-0.463-0.206
		c-0.109-0.137-0.187-0.3-0.23-0.486c-0.044-0.188-0.07-0.374-0.075-0.562C75.829,289.65,75.837,289.501,75.86,289.39
		 M75.348,285.71c-0.825-0.253-1.523-0.33-2.096-0.231c-0.572,0.1-1.031,0.298-1.378,0.595c-0.346,0.297-0.583,0.66-0.71,1.089
		c-0.126,0.429-0.162,0.845-0.107,1.246c0.056,0.401,0.195,0.76,0.421,1.073c0.225,0.313,0.528,0.503,0.908,0.568
		c0.379,0.066,0.822-0.021,1.328-0.264c0.506-0.242,1.068-0.72,1.684-1.436c0-0.033-0.003-0.182-0.008-0.445
		c-0.006-0.265-0.012-0.556-0.017-0.875c-0.005-0.319-0.011-0.611-0.016-0.874C75.351,285.892,75.348,285.744,75.348,285.71"/>
	<path clip-path="url(#SVGID_2_)" fill="#EF8200" d="M78.175,286.007c0-0.484,0.08-0.951,0.239-1.402
		c0.159-0.451,0.385-0.85,0.677-1.197c0.291-0.346,0.64-0.624,1.047-0.833c0.408-0.209,0.864-0.313,1.371-0.313
		c0.56,0.021,1.085,0.16,1.576,0.413c0.489,0.253,0.925,0.58,1.304,0.981c0.38,0.402,0.693,0.858,0.94,1.369
		c0.248,0.512,0.415,1.038,0.504,1.577c0.088,0.539,0.082,1.07-0.017,1.592c-0.099,0.523-0.306,0.996-0.619,1.42
		c-0.313,0.423-0.748,0.778-1.304,1.064s-1.246,0.456-2.071,0.511c-0.616,0-1.152-0.172-1.609-0.519
		c-0.456-0.348-0.836-0.778-1.139-1.297c-0.303-0.517-0.528-1.077-0.677-1.683C78.25,287.086,78.175,286.525,78.175,286.007
		 M79.28,286.189c0,0.396,0.036,0.82,0.107,1.271c0.072,0.45,0.202,0.868,0.388,1.254c0.188,0.385,0.448,0.704,0.784,0.957
		c0.336,0.253,0.768,0.38,1.296,0.38c0.836-0.088,1.49-0.312,1.964-0.669c0.473-0.357,0.789-0.78,0.949-1.271
		c0.159-0.49,0.187-1.012,0.082-1.567c-0.104-0.557-0.313-1.07-0.627-1.543c-0.313-0.474-0.71-0.875-1.188-1.205
		s-1.01-0.518-1.593-0.562c-0.363,0.011-0.671,0.088-0.924,0.231c-0.253,0.143-0.467,0.344-0.643,0.602
		c-0.177,0.259-0.312,0.567-0.405,0.925C79.377,285.35,79.313,285.749,79.28,286.189"/>
	<path clip-path="url(#SVGID_2_)" fill="#EF8200" d="M89.93,291.537c-0.914-0.044-1.629-0.212-2.146-0.504
		c-0.517-0.291-0.863-0.635-1.039-1.031c-0.177-0.396-0.198-0.814-0.066-1.254c0.132-0.44,0.382-0.836,0.752-1.188
		c0.367-0.352,0.841-0.625,1.419-0.817c0.577-0.192,1.224-0.239,1.938-0.141c-0.495-0.264-0.913-0.568-1.254-0.916
		c-0.342-0.347-0.598-0.7-0.768-1.063c-0.171-0.363-0.248-0.715-0.231-1.056c0.017-0.342,0.133-0.642,0.347-0.9
		c0.216-0.258,0.531-0.462,0.949-0.611c0.418-0.147,0.946-0.206,1.584-0.173c0.198,0,0.41,0.041,0.636,0.124
		c0.226,0.082,0.435,0.195,0.627,0.338c0.192,0.144,0.35,0.309,0.471,0.495c0.121,0.188,0.182,0.386,0.182,0.595
		c0.044,0.121,0.041,0.231-0.009,0.33c-0.049,0.099-0.115,0.177-0.198,0.231c-0.082,0.055-0.173,0.077-0.271,0.065
		c-0.1-0.011-0.177-0.065-0.231-0.165c-0.066-0.143-0.13-0.28-0.188-0.412c-0.062-0.133-0.139-0.248-0.232-0.348
		c-0.094-0.099-0.218-0.178-0.371-0.238c-0.154-0.061-0.363-0.092-0.627-0.092c-0.54,0.066-0.931,0.186-1.172,0.355
		c-0.242,0.171-0.377,0.369-0.404,0.594c-0.027,0.227,0.03,0.471,0.173,0.735c0.143,0.264,0.333,0.527,0.569,0.792
		c0.236,0.264,0.501,0.517,0.792,0.759c0.292,0.242,0.569,0.451,0.834,0.627l1.849-0.297c0.208,0.021,0.365,0.086,0.47,0.189
		c0.104,0.105,0.171,0.218,0.198,0.339s0.011,0.236-0.05,0.347s-0.151,0.171-0.272,0.181l-1.683,0.199
		c0.241,0.319,0.388,0.679,0.438,1.081c0.049,0.401-0.022,0.789-0.215,1.163s-0.515,0.713-0.966,1.015
		C91.31,291.187,90.699,291.405,89.93,291.537 M87.536,288.961c0.065,0.484,0.256,0.848,0.569,1.089
		c0.313,0.243,0.674,0.39,1.081,0.438s0.819,0.014,1.237-0.108c0.418-0.12,0.765-0.302,1.04-0.544s0.442-0.531,0.503-0.867
		c0.061-0.335-0.068-0.694-0.388-1.081c-0.132-0.176-0.321-0.302-0.569-0.379c-0.246-0.077-0.52-0.112-0.816-0.107
		c-0.297,0.006-0.6,0.05-0.908,0.133c-0.308,0.082-0.591,0.191-0.85,0.33c-0.259,0.138-0.471,0.3-0.636,0.486
		C87.635,288.539,87.547,288.742,87.536,288.961"/>
	<path clip-path="url(#SVGID_2_)" fill="#EF8200" d="M110.253,291.075c-0.925,0.462-1.777,0.697-2.559,0.709
		c-0.78,0.011-1.475-0.135-2.079-0.438c-0.605-0.302-1.116-0.723-1.534-1.262c-0.419-0.539-0.729-1.125-0.934-1.758
		c-0.203-0.633-0.288-1.276-0.256-1.932c0.033-0.654,0.195-1.251,0.487-1.791c0.291-0.538,0.724-0.979,1.296-1.319
		s1.298-0.518,2.178-0.528c0.198,0,0.41,0.036,0.636,0.107s0.429,0.173,0.61,0.306c0.182,0.131,0.333,0.291,0.454,0.478
		c0.121,0.188,0.182,0.396,0.182,0.627c0,0.287-0.088,0.54-0.264,0.76c-0.177,0.221-0.407,0.419-0.693,0.595
		s-0.603,0.33-0.949,0.461c-0.347,0.133-0.693,0.243-1.039,0.331c-0.347,0.088-0.669,0.156-0.966,0.206
		c-0.297,0.049-0.539,0.086-0.727,0.108c-0.077,0.626,0.003,1.201,0.239,1.724s0.553,0.957,0.949,1.304
		c0.396,0.348,0.828,0.598,1.297,0.751c0.466,0.154,0.898,0.176,1.294,0.066c0.144-0.022,0.324-0.064,0.545-0.124
		c0.22-0.061,0.448-0.118,0.685-0.174c0.236-0.055,0.462-0.094,0.677-0.115c0.216-0.022,0.385-0.011,0.512,0.033
		c0.126,0.044,0.195,0.135,0.206,0.271C110.511,290.61,110.429,290.81,110.253,291.075 M106.853,283.713
		c-0.253,0-0.527,0.061-0.825,0.182c-0.297,0.121-0.574,0.28-0.833,0.479s-0.474,0.421-0.644,0.669
		c-0.171,0.247-0.256,0.498-0.256,0.751c0.165,0,0.429-0.036,0.792-0.108c0.363-0.07,0.731-0.17,1.105-0.297
		c0.374-0.126,0.704-0.283,0.99-0.47c0.286-0.188,0.43-0.396,0.43-0.627c0-0.188-0.086-0.33-0.256-0.43
		C107.186,283.763,107.018,283.713,106.853,283.713"/>
	<path clip-path="url(#SVGID_2_)" fill="#EF8200" d="M113.953,291.537c-0.913-0.044-1.628-0.212-2.146-0.504
		c-0.517-0.291-0.863-0.635-1.039-1.031c-0.177-0.396-0.198-0.814-0.066-1.254c0.132-0.44,0.382-0.836,0.751-1.188
		c0.368-0.352,0.842-0.625,1.42-0.817c0.577-0.192,1.224-0.239,1.938-0.141c-0.495-0.264-0.913-0.568-1.254-0.916
		c-0.342-0.347-0.598-0.7-0.768-1.063c-0.171-0.363-0.248-0.715-0.231-1.056c0.017-0.342,0.133-0.642,0.347-0.9
		c0.215-0.258,0.531-0.462,0.949-0.611c0.418-0.147,0.946-0.206,1.584-0.173c0.198,0,0.41,0.041,0.636,0.124
		c0.226,0.082,0.435,0.195,0.627,0.338c0.192,0.144,0.35,0.309,0.471,0.495c0.121,0.188,0.182,0.386,0.182,0.595
		c0.044,0.121,0.041,0.231-0.009,0.33c-0.049,0.099-0.115,0.177-0.198,0.231c-0.082,0.055-0.173,0.077-0.271,0.065
		c-0.1-0.011-0.177-0.065-0.231-0.165c-0.066-0.143-0.13-0.28-0.188-0.412c-0.062-0.133-0.139-0.248-0.232-0.348
		c-0.094-0.099-0.218-0.178-0.371-0.238c-0.154-0.061-0.363-0.092-0.627-0.092c-0.54,0.066-0.931,0.186-1.172,0.355
		c-0.242,0.171-0.377,0.369-0.404,0.594c-0.028,0.227,0.03,0.471,0.173,0.735c0.143,0.264,0.333,0.527,0.569,0.792
		c0.236,0.264,0.501,0.517,0.792,0.759c0.292,0.242,0.569,0.451,0.834,0.627l1.849-0.297c0.208,0.021,0.365,0.086,0.47,0.189
		c0.104,0.105,0.171,0.218,0.198,0.339s0.011,0.236-0.05,0.347s-0.151,0.171-0.272,0.181l-1.683,0.199
		c0.241,0.319,0.388,0.679,0.438,1.081c0.049,0.401-0.022,0.789-0.215,1.163s-0.515,0.713-0.966,1.015
		C115.334,291.187,114.724,291.405,113.953,291.537 M111.561,288.961c0.065,0.484,0.256,0.848,0.569,1.089
		c0.313,0.243,0.674,0.39,1.081,0.438s0.819,0.014,1.237-0.108c0.418-0.12,0.765-0.302,1.04-0.544s0.442-0.531,0.503-0.867
		c0.061-0.335-0.068-0.694-0.388-1.081c-0.132-0.176-0.321-0.302-0.569-0.379c-0.247-0.077-0.52-0.112-0.816-0.107
		c-0.297,0.006-0.6,0.05-0.908,0.133c-0.308,0.082-0.591,0.191-0.85,0.33c-0.259,0.138-0.471,0.3-0.636,0.486
		C111.659,288.539,111.571,288.742,111.561,288.961"/>
	<path clip-path="url(#SVGID_2_)" fill="#EF8200" d="M121.021,284.44c-0.187,0-0.369,0.017-0.545,0.05s-0.352,0.068-0.528,0.106
		c-0.176,0.039-0.349,0.074-0.52,0.107s-0.35,0.05-0.536,0.05c-0.022,0-0.063,0.002-0.124,0.008s-0.124,0.003-0.189-0.008
		c-0.066-0.011-0.127-0.03-0.182-0.058c-0.056-0.027-0.083-0.074-0.083-0.141c0-0.198,0.061-0.357,0.182-0.479
		s0.275-0.22,0.462-0.297c0.188-0.077,0.396-0.138,0.628-0.182c0.23-0.044,0.451-0.096,0.66-0.156
		c0.209-0.062,0.396-0.136,0.561-0.224s0.281-0.215,0.347-0.38c0.066-0.153,0.118-0.377,0.157-0.668
		c0.038-0.292,0.071-0.616,0.099-0.974s0.049-0.731,0.066-1.122c0.017-0.391,0.027-0.771,0.032-1.14
		c0.006-0.367,0.009-0.706,0.009-1.015c0-0.308,0.005-0.555,0.017-0.742c0.132-0.209,0.27-0.328,0.412-0.354
		c0.144-0.028,0.319,0.029,0.528,0.173c0,0.935-0.02,1.862-0.058,2.781c-0.039,0.919-0.02,1.879,0.058,2.88l3.763-1.14
		c0.154-0.044,0.272-0.055,0.355-0.032c0.082,0.021,0.14,0.063,0.173,0.124c0.033,0.06,0.052,0.129,0.058,0.206
		c0.006,0.076,0.009,0.153,0.009,0.23c0,0.165-0.086,0.31-0.256,0.429c-0.171,0.121-0.391,0.231-0.66,0.33
		c-0.27,0.1-0.572,0.19-0.908,0.273c-0.336,0.082-0.671,0.162-1.007,0.239c-0.335,0.076-0.654,0.153-0.958,0.23
		c-0.302,0.077-0.552,0.16-0.75,0.247c-0.099,0.54-0.162,1.159-0.189,1.857s-0.009,1.395,0.058,2.088
		c0.066,0.692,0.185,1.334,0.354,1.923c0.171,0.588,0.413,1.039,0.727,1.353c0.313,0.314,0.701,0.44,1.163,0.381
		c0.463-0.062,1.013-0.395,1.65-0.999c0.011,0.011,0.061,0.076,0.148,0.197c0.089,0.121,0.165,0.24,0.231,0.355
		c0.065,0.115,0.107,0.194,0.124,0.239c0.017,0.044-0.041,0-0.174-0.133c-0.671,0.771-1.284,1.235-1.84,1.396
		c-0.556,0.159-1.048,0.112-1.477-0.141c-0.43-0.254-0.796-0.677-1.098-1.271c-0.304-0.595-0.539-1.263-0.71-2.005
		c-0.171-0.743-0.278-1.52-0.322-2.327C120.894,285.901,120.922,285.144,121.021,284.44"/>
	<path clip-path="url(#SVGID_2_)" fill="#EF8200" d="M128.45,290.381c-0.121-0.672-0.247-1.329-0.379-1.973
		c-0.133-0.644-0.256-1.271-0.372-1.882c-0.115-0.61-0.212-1.207-0.288-1.79c-0.077-0.583-0.116-1.155-0.116-1.716
		c-0.021-0.165,0.006-0.309,0.083-0.43s0.176-0.206,0.297-0.256s0.248-0.053,0.379-0.009c0.133,0.044,0.231,0.155,0.298,0.33v1.816
		c0.077-0.33,0.267-0.649,0.569-0.957c0.303-0.309,0.677-0.537,1.122-0.686s0.946-0.179,1.502-0.091s1.125,0.363,1.708,0.825
		c0.088,0.088,0.143,0.185,0.165,0.289s0.017,0.204-0.017,0.297c-0.032,0.094-0.096,0.171-0.189,0.231s-0.218,0.091-0.371,0.091
		c-0.1-0.121-0.251-0.234-0.454-0.339c-0.204-0.104-0.438-0.188-0.701-0.247c-0.265-0.061-0.539-0.083-0.825-0.066
		s-0.564,0.085-0.834,0.206c-0.27,0.122-0.515,0.309-0.734,0.563c-0.22,0.252-0.391,0.583-0.512,0.989
		c0,0.264,0.033,0.588,0.1,0.974c0.065,0.386,0.138,0.783,0.214,1.196c0.077,0.412,0.149,0.812,0.215,1.196
		c0.066,0.386,0.1,0.71,0.1,0.974c0.055,0.144,0.049,0.271-0.017,0.38c-0.066,0.11-0.154,0.189-0.265,0.239
		c-0.109,0.05-0.23,0.066-0.363,0.05C128.632,290.571,128.527,290.501,128.45,290.381"/>
	<path clip-path="url(#SVGID_2_)" fill="#EF8200" d="M141.394,291.075c-0.925,0.462-1.777,0.697-2.559,0.709
		c-0.781,0.011-1.475-0.135-2.079-0.438c-0.605-0.302-1.116-0.723-1.535-1.262c-0.418-0.539-0.729-1.125-0.933-1.758
		c-0.203-0.633-0.288-1.276-0.256-1.932c0.033-0.654,0.195-1.251,0.487-1.791c0.291-0.538,0.724-0.979,1.296-1.319
		c0.571-0.341,1.298-0.518,2.178-0.528c0.198,0,0.41,0.036,0.636,0.107s0.429,0.173,0.61,0.306c0.182,0.131,0.333,0.291,0.454,0.478
		c0.121,0.188,0.182,0.396,0.182,0.627c0,0.287-0.088,0.54-0.264,0.76c-0.177,0.221-0.407,0.419-0.693,0.595
		s-0.603,0.33-0.949,0.461c-0.347,0.133-0.693,0.243-1.04,0.331c-0.346,0.088-0.668,0.156-0.965,0.206
		c-0.297,0.049-0.539,0.086-0.727,0.108c-0.077,0.626,0.003,1.201,0.239,1.724s0.553,0.957,0.949,1.304
		c0.396,0.348,0.828,0.598,1.297,0.751c0.466,0.154,0.898,0.176,1.294,0.066c0.144-0.022,0.324-0.064,0.545-0.124
		c0.22-0.061,0.448-0.118,0.685-0.174c0.236-0.055,0.462-0.094,0.677-0.115c0.216-0.022,0.385-0.011,0.512,0.033
		c0.126,0.044,0.195,0.135,0.206,0.271C141.651,290.61,141.569,290.81,141.394,291.075 M137.993,283.713
		c-0.253,0-0.527,0.061-0.825,0.182c-0.297,0.121-0.574,0.28-0.833,0.479s-0.474,0.421-0.644,0.669
		c-0.171,0.247-0.256,0.498-0.256,0.751c0.165,0,0.429-0.036,0.792-0.108c0.363-0.07,0.731-0.17,1.105-0.297
		c0.374-0.126,0.704-0.283,0.99-0.47c0.286-0.188,0.43-0.396,0.43-0.627c0-0.188-0.086-0.33-0.256-0.43
		C138.326,283.763,138.158,283.713,137.993,283.713"/>
	<path clip-path="url(#SVGID_2_)" fill="#EF8200" d="M142.074,289.573c0.571,0,1.059-0.105,1.459-0.314
		c0.402-0.209,0.779-0.511,1.132-0.906c0-0.066-0.036-0.281-0.107-0.645s-0.151-0.82-0.239-1.37s-0.173-1.164-0.256-1.84
		c-0.082-0.677-0.132-1.367-0.148-2.071s0.008-1.386,0.074-2.047c0.066-0.66,0.203-1.248,0.413-1.766
		c0.208-0.518,0.503-0.933,0.882-1.246c0.38-0.313,0.867-0.47,1.461-0.47c0.506,0,0.899,0.153,1.181,0.462
		c0.28,0.308,0.476,0.715,0.586,1.222c0.109,0.505,0.146,1.083,0.105,1.732c-0.037,0.648-0.126,1.319-0.263,2.014
		c-0.138,0.693-0.309,1.378-0.512,2.054c-0.203,0.677-0.412,1.293-0.627,1.85c-0.215,0.556-0.424,1.022-0.627,1.402
		c-0.204,0.379-0.371,0.618-0.504,0.719c0.209,0.671,0.438,1.212,0.686,1.625c0.247,0.412,0.495,0.726,0.742,0.94
		c0.248,0.214,0.492,0.357,0.734,0.429s0.465,0.11,0.669,0.115c0.203,0.006,0.382,0,0.536-0.016c0.154-0.018,0.27-0.008,0.347,0.024
		c0.121,0.055,0.244,0.144,0.371,0.265c0.126,0.12,0.206,0.247,0.238,0.379c0.034,0.133-0.01,0.248-0.131,0.347
		c-0.121,0.1-0.369,0.148-0.744,0.148c-0.637,0-1.185-0.077-1.641-0.231c-0.457-0.154-0.85-0.382-1.18-0.685
		s-0.617-0.677-0.858-1.122c-0.242-0.445-0.468-0.965-0.677-1.56c-0.286,0.297-0.536,0.542-0.751,0.734s-0.432,0.347-0.652,0.462
		c-0.22,0.116-0.462,0.198-0.726,0.248c-0.266,0.049-0.578,0.074-0.941,0.074L142.074,289.573z M146.679,277.855
		c-0.374,0.055-0.68,0.23-0.916,0.527c-0.237,0.297-0.424,0.672-0.562,1.122c-0.138,0.452-0.23,0.955-0.28,1.511
		s-0.072,1.119-0.066,1.691s0.033,1.131,0.083,1.675c0.049,0.545,0.104,1.024,0.165,1.437c0.061,0.413,0.121,0.743,0.181,0.99
		c0.061,0.247,0.103,0.36,0.124,0.339c0.319-0.221,0.608-0.611,0.867-1.173c0.258-0.561,0.48-1.19,0.668-1.89
		c0.188-0.698,0.327-1.424,0.421-2.178s0.135-1.437,0.124-2.047c-0.012-0.61-0.083-1.106-0.215-1.485
		S146.942,277.822,146.679,277.855"/>
	<path clip-path="url(#SVGID_2_)" fill="#EF8200" d="M154.737,288.136c-0.242,0.386-0.55,0.742-0.924,1.072
		c-0.375,0.33-0.768,0.601-1.181,0.81c-0.412,0.209-0.825,0.344-1.237,0.405c-0.413,0.06-0.781,0.013-1.105-0.142
		c-0.325-0.154-0.586-0.432-0.784-0.833s-0.286-0.96-0.265-1.675c-0.032-0.506,0.042-1.004,0.224-1.494
		c0.181-0.489,0.432-0.94,0.75-1.354c0.319-0.412,0.693-0.768,1.123-1.064c0.429-0.297,0.88-0.5,1.353-0.61
		c0.474-0.109,0.952-0.112,1.437-0.009c0.483,0.105,0.939,0.351,1.369,0.735c0.011,0.627,0.022,1.199,0.033,1.716
		c0.011,0.518,0.041,1.029,0.091,1.535s0.124,1.026,0.223,1.56s0.242,1.13,0.43,1.79c0.121,0.222,0.146,0.428,0.074,0.619
		c-0.072,0.192-0.177,0.333-0.313,0.421c-0.138,0.088-0.286,0.107-0.446,0.058c-0.159-0.05-0.267-0.211-0.321-0.486L154.737,288.136
		z M150.38,287.592c0.056,0.583,0.185,0.999,0.389,1.245c0.203,0.248,0.445,0.371,0.726,0.371c0.282,0,0.578-0.106,0.892-0.321
		c0.313-0.214,0.603-0.495,0.866-0.842s0.482-0.736,0.652-1.172c0.17-0.434,0.261-0.872,0.271-1.312
		c0-0.144-0.014-0.297-0.041-0.462s-0.074-0.319-0.14-0.462c-0.066-0.144-0.151-0.262-0.256-0.355
		c-0.105-0.093-0.239-0.14-0.404-0.14c-0.419,0-0.807,0.106-1.164,0.322c-0.357,0.214-0.668,0.491-0.933,0.833
		c-0.264,0.341-0.473,0.715-0.627,1.121C150.457,286.827,150.38,287.218,150.38,287.592"/>
	<path clip-path="url(#SVGID_2_)" fill="#EF8200" d="M160.253,291.537c-0.913-0.044-1.628-0.212-2.146-0.504
		c-0.517-0.291-0.863-0.635-1.039-1.031c-0.177-0.396-0.198-0.814-0.066-1.254c0.132-0.44,0.382-0.836,0.751-1.188
		c0.368-0.352,0.842-0.625,1.42-0.817c0.577-0.192,1.224-0.239,1.938-0.141c-0.495-0.264-0.913-0.568-1.254-0.916
		c-0.342-0.347-0.598-0.7-0.768-1.063c-0.171-0.363-0.248-0.715-0.231-1.056c0.017-0.342,0.133-0.642,0.347-0.9
		c0.215-0.258,0.531-0.462,0.949-0.611c0.418-0.147,0.946-0.206,1.584-0.173c0.198,0,0.41,0.041,0.636,0.124
		c0.226,0.082,0.435,0.195,0.627,0.338c0.192,0.144,0.35,0.309,0.471,0.495c0.121,0.188,0.182,0.386,0.182,0.595
		c0.044,0.121,0.041,0.231-0.009,0.33c-0.049,0.099-0.115,0.177-0.198,0.231c-0.082,0.055-0.173,0.077-0.271,0.065
		c-0.1-0.011-0.177-0.065-0.231-0.165c-0.066-0.143-0.13-0.28-0.189-0.412c-0.061-0.133-0.138-0.248-0.231-0.348
		c-0.094-0.099-0.218-0.178-0.371-0.238c-0.154-0.061-0.363-0.092-0.627-0.092c-0.54,0.066-0.931,0.186-1.172,0.355
		c-0.242,0.171-0.377,0.369-0.404,0.594c-0.028,0.227,0.03,0.471,0.173,0.735c0.143,0.264,0.333,0.527,0.569,0.792
		c0.236,0.264,0.501,0.517,0.792,0.759c0.292,0.242,0.569,0.451,0.834,0.627l1.849-0.297c0.208,0.021,0.365,0.086,0.47,0.189
		c0.104,0.105,0.171,0.218,0.198,0.339s0.011,0.236-0.05,0.347s-0.151,0.171-0.272,0.181l-1.683,0.199
		c0.241,0.319,0.388,0.679,0.438,1.081c0.049,0.401-0.022,0.789-0.215,1.163s-0.515,0.713-0.966,1.015
		C161.634,291.187,161.023,291.405,160.253,291.537 M157.86,288.961c0.065,0.484,0.256,0.848,0.569,1.089
		c0.313,0.243,0.674,0.39,1.081,0.438s0.819,0.014,1.237-0.108c0.418-0.12,0.765-0.302,1.04-0.544s0.442-0.531,0.503-0.867
		c0.061-0.335-0.068-0.694-0.388-1.081c-0.132-0.176-0.321-0.302-0.569-0.379c-0.247-0.077-0.52-0.112-0.816-0.107
		c-0.297,0.006-0.6,0.05-0.908,0.133c-0.308,0.082-0.591,0.191-0.85,0.33c-0.259,0.138-0.471,0.3-0.636,0.486
		C157.959,288.539,157.871,288.742,157.86,288.961"/>
	<g clip-path="url(#SVGID_2_)">
		<g>
			<defs>
				<rect id="SVGID_9_" x="88.324" y="171.934" width="2.104" height="0.051"/>
			</defs>
			<clipPath id="SVGID_10_">
				<use xlink:href="#SVGID_9_"  overflow="visible"/>
			</clipPath>
			<path clip-path="url(#SVGID_10_)" fill="#3BB193" d="M90.428,171.934c-0.698,0.033-1.399,0.046-2.104,0.051
				C89.028,171.98,89.729,171.964,90.428,171.934"/>
		</g>
	</g>
	<g opacity="0.5" clip-path="url(#SVGID_2_)">
		<g>
			<defs>
				<rect id="SVGID_11_" x="90.428" y="171.912" width="0.402" height="0.022"/>
			</defs>
			<clipPath id="SVGID_12_">
				<use xlink:href="#SVGID_11_"  overflow="visible"/>
			</clipPath>
			<path clip-path="url(#SVGID_12_)" fill="#8BC8A8" d="M90.83,171.912c-0.135,0.006-0.269,0.017-0.402,0.022
				C90.562,171.928,90.695,171.918,90.83,171.912"/>
		</g>
	</g>
	<g opacity="0.5" clip-path="url(#SVGID_2_)">
		<g>
			<defs>
				<rect id="SVGID_13_" x="87.905" y="171.985" width="0.419" height="0.01"/>
			</defs>
			<clipPath id="SVGID_14_">
				<use xlink:href="#SVGID_13_"  overflow="visible"/>
			</clipPath>
			<path clip-path="url(#SVGID_14_)" fill="#8BC8A8" d="M87.952,171.995c0.125,0,0.248-0.008,0.372-0.009
				c-0.14,0.001-0.278,0.008-0.419,0.008C87.921,171.994,87.937,171.995,87.952,171.995"/>
		</g>
	</g>
	<path clip-path="url(#SVGID_2_)" fill="#C50054" d="M22.422,90.47c0,0-0.043,0.24-0.127,0.706
		c-0.084,0.469-0.187,1.145-0.269,2.049c-0.182,1.8-0.252,4.465,0.123,7.81c0.39,3.341,1.236,7.362,2.808,11.768
		c1.547,4.409,3.836,9.199,6.969,14.005c3.164,4.777,7.174,9.592,12.197,13.799c4.988,4.236,10.942,7.888,17.636,10.47
		c6.703,2.547,14.156,3.897,21.771,3.864c7.605-0.116,15.391-1.289,22.715-3.789c7.32-2.506,14.176-6.25,20.039-10.985
		c5.898-4.688,10.865-10.283,14.754-16.286c1.934-3.01,3.621-6.108,5.072-9.232c1.471-3.116,2.709-6.262,3.754-9.379
		c2.137-6.223,3.449-12.347,4.313-18.048c0.838-5.71,1.191-11.011,1.279-15.718c0.098-4.712-0.109-8.828-0.369-12.212
		c-0.246-3.386-0.561-6.043-0.811-7.85c-0.248-1.809-0.379-2.775-0.379-2.775l0.299-0.061c0,0,0.236,0.948,0.68,2.727
		c0.416,1.787,0.961,4.421,1.508,7.811c0.525,3.389,0.971,7.544,1.186,12.333c0.119,2.396,0.133,4.952,0.045,7.645
		c-0.082,2.694-0.266,5.526-0.607,8.469c-0.654,5.888-1.918,12.229-4.018,18.721c-1.086,3.234-2.387,6.499-3.926,9.742
		c-1.568,3.227-3.408,6.412-5.49,9.508c-4.195,6.16-9.477,11.948-15.838,16.516c-3.156,2.309-6.576,4.282-10.123,5.982
		c-3.543,1.715-7.248,3.089-11.018,4.194c-3.76,1.134-7.598,1.982-11.451,2.602c-3.859,0.627-7.715,1.056-11.586,1.229
		c-7.725,0.31-15.448-0.586-22.535-2.925c-7.103-2.276-13.468-6.012-18.685-10.444c-5.207-4.46-9.375-9.507-12.498-14.578
		c-3.148-5.063-5.293-10.125-6.705-14.738c-1.379-4.628-2.037-8.811-2.182-12.269c-0.164-3.459,0.153-6.176,0.5-7.986
		c0.17-0.906,0.348-1.605,0.475-2.054c0.129-0.455,0.195-0.689,0.195-0.689L22.422,90.47z"/>
	<g opacity="0.4" clip-path="url(#SVGID_2_)">
		<g>
			<defs>
				<rect id="SVGID_15_" x="143.847" y="3.792" width="6.928" height="10.076"/>
			</defs>
			<clipPath id="SVGID_16_">
				<use xlink:href="#SVGID_15_"  overflow="visible"/>
			</clipPath>
			<path clip-path="url(#SVGID_16_)" fill="#FFED00" d="M145.319,10.996c0.514,0.358,1.01,0.741,1.486,1.149
				c0.48,0.402,0.936,0.832,1.377,1.28c0.143,0.145,0.279,0.295,0.418,0.443c0.06-0.131,0.123-0.259,0.176-0.393
				c0.211-0.5,0.408-1.006,0.582-1.529c0.354-1.041,0.598-2.126,0.863-3.219c0.258-1.096,0.486-2.218,0.539-3.354
				c0.023-0.527,0.014-1.055-0.02-1.581c-0.141,0.346-0.297,0.685-0.484,1.008c-0.477,0.851-1.109,1.595-1.783,2.276
				c-0.68,0.677-1.427,1.274-2.221,1.796c-0.76,0.483-1.557,0.909-2.406,1.207c0.23,0.13,0.459,0.264,0.686,0.404
				C144.799,10.649,145.073,10.807,145.319,10.996"/>
		</g>
	</g>
</g>
</svg>
